<svg xmlns="http://www.w3.org/2000/svg" viewBox="0 0 96 96" fill="none">
  <!-- Transparent background; only the pear is drawn -->
  <defs>
    <linearGradient id="pearGradient" x1="24" y1="12" x2="72" y2="84" gradientUnits="userSpaceOnUse">
      <stop stop-color="#17D0C2"/>
      <stop offset="1" stop-color="#08B6A9"/>
    </linearGradient>
  </defs>
  <!-- Leaf -->
  <path d="M54 18c7 0 12 1 16 5s6 9 6 16c-12-1-20-4-24-8-4-4-5-8 2-13z" fill="#12CAB9"/>
  <!-- Stem -->
  <path d="M48 26c0-5 3-10 6-12 1-1 3 0 3 1 0 2-1 3-2 5-1 3-2 5-2 9 0 1-1 2-2 2s-3-2-3-5z" fill="#12CAB9"/>
  <!-- Pear body -->
  <path d="M67 39c-2-6-8-11-17-11s-15 5-17 11c-3 9-12 12-12 26 0 14 12 26 29 26s29-12 29-26c0-14-9-17-12-26z" fill="url(#pearGradient)"/>
  <!-- Highlight -->
  <path d="M39 56c-3 4-5 8-5 13 0 2-2 3-4 2-1-1-2-2-2-4 0-6 3-12 8-17 1-1 3-1 4 0 1 1 1 3-1 6z" fill="#66E5DA" opacity=".45"/>
</svg>

